<svg xmlns="http://www.w3.org/2000/svg" xmlns:xlink="http://www.w3.org/1999/xlink" width="512" zoomAndPan="magnify" viewBox="0 0 384 383.999986" height="512" preserveAspectRatio="xMidYMid meet" version="1.0"><defs><clipPath id="65aab148d0"><path d="M 28 38.257812 L 329 38.257812 L 329 347 L 28 347 Z M 28 38.257812 " clip-rule="nonzero"/></clipPath><clipPath id="274330e8e7"><path d="M 327.359375 254.257812 C 320.640625 318.578125 256.320312 338.257812 256.320312 338.257812 C 192 357.9375 128.160156 337.777344 128.160156 337.777344 C 64.320312 317.617188 36.960938 253.777344 36.960938 253.777344 C 9.601562 189.9375 59.519531 148.660156 59.519531 148.660156 C 109.441406 107.378906 150.71875 63.21875 150.71875 63.21875 C 192 19.058594 248.640625 47.859375 248.640625 47.859375 C 305.28125 76.660156 319.679688 133.296875 319.679688 133.296875 C 334.078125 189.9375 327.359375 254.257812 327.359375 254.257812 Z M 327.359375 254.257812 " clip-rule="nonzero"/></clipPath><clipPath id="d1130f0e9f"><path d="M 0 0.257812 L 301 0.257812 L 301 309 L 0 309 Z M 0 0.257812 " clip-rule="nonzero"/></clipPath><clipPath id="af6613e587"><path d="M 299.359375 216.257812 C 292.640625 280.578125 228.320312 300.257812 228.320312 300.257812 C 164 319.9375 100.160156 299.777344 100.160156 299.777344 C 36.320312 279.617188 8.960938 215.777344 8.960938 215.777344 C -18.398438 151.9375 31.519531 110.660156 31.519531 110.660156 C 81.441406 69.378906 122.71875 25.21875 122.71875 25.21875 C 164 -18.941406 220.640625 9.859375 220.640625 9.859375 C 277.28125 38.660156 291.679688 95.296875 291.679688 95.296875 C 306.078125 151.9375 299.359375 216.257812 299.359375 216.257812 Z M 299.359375 216.257812 " clip-rule="nonzero"/></clipPath><clipPath id="ea7bd81e30"><rect x="0" width="301" y="0" height="309"/></clipPath></defs><g clip-path="url(#65aab148d0)"><g clip-path="url(#274330e8e7)"><g transform="matrix(1, 0, 0, 1, 28, 38)"><g clip-path="url(#ea7bd81e30)"><g clip-path="url(#d1130f0e9f)"><g clip-path="url(#af6613e587)"><rect x="-112.48" width="552.96" fill="#eaeaea" height="552.959979" y="-122.479997" fill-opacity="1"/></g></g></g></g></g></g></svg>